<svg width="24" height="31" viewBox="0 0 24 31" fill="none" xmlns="http://www.w3.org/2000/svg">
<path d="M23.5 14.0469H13.5V4.35938C13.5 4.09176 13.2762 3.875 13 3.875H11C10.7238 3.875 10.5 4.09176 10.5 4.35938V14.0469H0.5C0.22375 14.0469 0 14.2636 0 14.5312V16.4688C0 16.7364 0.22375 16.9531 0.5 16.9531H10.5V26.6406C10.5 26.9082 10.7238 27.125 11 27.125H13C13.2762 27.125 13.5 26.9082 13.5 26.6406V16.9531H23.5C23.7763 16.9531 24 16.7364 24 16.4688V14.5312C24 14.2636 23.7763 14.0469 23.5 14.0469Z" fill="white"/>
</svg>
